<svg xmlns="http://www.w3.org/2000/svg" viewBox="0 0 50.9 50.9"><path d="M28.5,19.9a.3.3,0,0,0-.4.3,10.4,10.4,0,0,0,.2,3.4,13.9,13.9,0,0,0,1.3,3,.3.3,0,0,0,.5.1,3.8,3.8,0,0,0,1.2-4.2A3.7,3.7,0,0,0,28.5,19.9Z"/><path d="M25.4,0A25.4,25.4,0,1,0,50.9,25.4,25.4,25.4,0,0,0,25.4,0Zm7.1,33.7c-1,.2-2.1-.4-3.2-1.5h0c-2.2-1.1-6.2-1.9-11.9-.2l3.7,6.5a2.5,2.5,0,0,1-1,3.4H20a2.5,2.5,0,0,1-3.4-1l-4.2-7.3-1.2-1.9a2.9,2.9,0,0,1-2.7-2.1l-.8-3.6c-.3-1.4.9-2.3,2.2-2.6l-.3-.9c-.3-1.4,1-2.6,2.3-2.9h.1a2.9,2.9,0,0,1,2.4.8s7.8,0,11.2-5.2a5.8,5.8,0,0,1,1-1.6h0a2.5,2.5,0,0,1,1.4-.9c2.5-.5,5.6,3.7,6.8,9.4S35.1,33.1,32.5,33.7Zm3.9-18.8a1.4,1.4,0,0,1,.2-1.9l2.6-2.1a1.4,1.4,0,1,1,1.7,2.1L38.3,15A1.4,1.4,0,0,1,36.4,14.8ZM44,30.1a1.4,1.4,0,0,1-1.7.9L39.1,30a1.4,1.4,0,1,1,.8-2.6l3.2,1.1A1.4,1.4,0,0,1,44,30.1Zm-.1-8.4-3.3.6a1.4,1.4,0,0,1-.5-2.7l3.3-.6a1.4,1.4,0,1,1,.5,2.7Z"/></svg>
